# xmcd CD database file
#
# Track frame offsets:
#	150
#	14190
#	26440
#	38992
#	50898
#	60970
#	71152
#	82789
#	94851
#	107799
#	122079
#	133101
#	144038
#	154855
#	165196
#	176534
#	185754
#	199824
#	211553
#	223609
#	233807
#	245908
#	260308
#	270194
#	283636
#	293651
#	307833
#	316937
#
# Disc length: 4402 seconds
#
# Revision: 1
# Processed by: cddbd v1.5.2PL0 Copyright (c) Steve Scherf et al.
# Submitted via: CDex 2.19
#
DISCID=8b11301c
DTITLE=Eddy Arnold - Cattle Call
DYEAR=2019
DGENRE=Country
TTITLE0=I'm Thinking Tonight Of My Blue Eyes
TTITLE1=Prisoner's Song
TTITLE2=When My Blue Moon Turns To Gold Again
TTITLE3=Roll Along Kentucky Moon
TTITLE4=Somebody's Been Beatin' My Time
TTITLE5=Bundle Of Southern Sunshine
TTITLE6=Bouquet Of Roses
TTITLE7=Texarkana Baby
TTITLE8=Anytime
TTITLE9=That's How Much I Love You
TTITLE10=A Full Time Job
TTITLE11=Moonlight And Roses
TTITLE12=I'm Gonna Lock My heart 
TTITLE13=Free Home Demonstration
TTITLE14=Mama Come And Get Your Baby Boy
TTITLE15=Hep Cat Baby
TTITLE16=Cattle Call
TTITLE17=Just Call Me Lonesome
TTITLE18=Bayou Baby
TTITLE19=Rockin' Mockin' Bird
TTITLE20="Casey Jones, The Brave Engineer"
TTITLE21=Ballad Of Wes Tancred
TTITLE22=Gonna Find Me A Blue Bird
TTITLE23=Wagon Wheels
TTITLE24=Chip Off The Old Block
TTITLE25=Tennessee Stud
TTITLE26=Sittin' By Sitting Bull
TTITLE27=Boot Hill
EXTD=YEAR: 2019
EXTT0=
EXTT1=
EXTT2=
EXTT3=
EXTT4=
EXTT5=
EXTT6=
EXTT7=
EXTT8=
EXTT9=
EXTT10=
EXTT11=
EXTT12=
EXTT13=
EXTT14=
EXTT15=
EXTT16=
EXTT17=
EXTT18=
EXTT19=
EXTT20=
EXTT21=
EXTT22=
EXTT23=
EXTT24=
EXTT25=
EXTT26=
EXTT27=
PLAYORDER=
